<svg width="118" height="118" viewBox="0 0 118 118" fill="none" xmlns="http://www.w3.org/2000/svg">
<path d="M111.75 18.01H82.5V13.26C85.37 12.49 87.5 9.86 87.5 6.75C87.5 3.03 84.47 0 80.75 0C77.03 0 74 3.03 74 6.75C74 9.87 76.13 12.49 79 13.26V18.01H60.5V13.26C63.37 12.49 65.5 9.86 65.5 6.75C65.5 3.03 62.47 0 58.75 0C55.03 0 52 3.03 52 6.75C52 9.87 54.13 12.49 57 13.26V18.01H38.5V13.26C41.37 12.49 43.5 9.86 43.5 6.75C43.5 3.03 40.47 0 36.75 0C33.03 0 30 3.03 30 6.75C30 9.87 32.13 12.49 35 13.26V18.01H5.75C2.58 18.01 0 20.59 0 23.76V97.76C0 100.93 2.58 103.51 5.75 103.51H45V114.01H34.81C33.84 114.01 33.06 114.79 33.06 115.76C33.06 116.73 33.84 117.51 34.81 117.51H82.68C83.65 117.51 84.43 116.73 84.43 115.76C84.43 114.79 83.65 114.01 82.68 114.01H72.5V103.51H111.75C114.92 103.51 117.5 100.93 117.5 97.76V23.76C117.5 20.59 114.92 18.01 111.75 18.01ZM77.5 6.75C77.5 4.96 78.96 3.5 80.75 3.5C82.54 3.5 84 4.96 84 6.75C84 8.54 82.54 10 80.75 10C78.96 10 77.5 8.54 77.5 6.75ZM55.5 6.75C55.5 4.96 56.96 3.5 58.75 3.5C60.54 3.5 62 4.96 62 6.75C62 8.54 60.54 10 58.75 10C56.96 10 55.5 8.54 55.5 6.75ZM33.5 6.75C33.5 4.96 34.96 3.5 36.75 3.5C38.54 3.5 40 4.96 40 6.75C40 8.54 38.54 10 36.75 10C34.96 10 33.5 8.54 33.5 6.75ZM79 21.51V24.01H60.5V21.51H79ZM72.56 44.76L70.43 47.43C69.97 48.01 69.92 48.82 70.32 49.45C71.16 50.77 71.75 52.21 72.09 53.73C72.25 54.45 72.85 54.99 73.59 55.08L76.99 55.49V58.03L73.6 58.42C72.86 58.5 72.26 59.05 72.09 59.77C71.75 61.29 71.15 62.73 70.32 64.05C69.92 64.68 69.96 65.48 70.42 66.07L72.54 68.77L70.74 70.57L68.07 68.44C67.49 67.98 66.67 67.93 66.05 68.33C64.73 69.16 63.29 69.76 61.77 70.1C61.05 70.26 60.51 70.86 60.42 71.6L60.01 75H57.47L57.08 71.61C57 70.87 56.45 70.27 55.73 70.1C54.21 69.76 52.77 69.16 51.45 68.33C50.83 67.93 50.02 67.97 49.43 68.43L46.73 70.55L44.93 68.75L47.06 66.08C47.52 65.5 47.57 64.69 47.17 64.06C46.34 62.74 45.74 61.3 45.4 59.78C45.24 59.06 44.64 58.52 43.9 58.43L40.5 58.02V55.48L43.89 55.09C44.63 55.01 45.23 54.46 45.4 53.74C45.74 52.22 46.34 50.78 47.17 49.46C47.57 48.83 47.53 48.03 47.07 47.44L44.95 44.74L46.75 42.94L49.42 45.07C50 45.53 50.82 45.58 51.44 45.18C52.76 44.35 54.2 43.75 55.72 43.41C56.44 43.25 56.98 42.65 57.07 41.91L57.48 38.51H60.02L60.41 41.9C60.49 42.64 61.04 43.24 61.76 43.41C63.28 43.75 64.72 44.35 66.04 45.18C66.67 45.58 67.47 45.54 68.06 45.08L70.76 42.96L72.56 44.76ZM55.94 35.01C55.06 35.01 54.31 35.67 54.2 36.55L53.74 40.31C52.67 40.63 51.64 41.06 50.66 41.59L47.7 39.24C47 38.69 46 38.74 45.37 39.37L44.6 40.14L38.49 34.03V27.5H57V35H55.94V35.01ZM35.51 36L42.13 42.62L41.38 43.37C40.75 44 40.69 44.99 41.24 45.69L43.58 48.67C43.05 49.65 42.63 50.68 42.3 51.75L38.54 52.18C37.66 52.28 36.99 53.03 36.99 53.92V55.01H29.25C28.48 52.14 25.85 50.01 22.74 50.01C19.02 50.01 15.99 53.04 15.99 56.76C15.99 60.48 19.02 63.51 22.74 63.51C25.86 63.51 28.48 61.38 29.25 58.51H37V59.57C37 60.45 37.66 61.2 38.54 61.31L42.3 61.77C42.62 62.84 43.05 63.87 43.58 64.85L41.23 67.81C40.68 68.51 40.73 69.51 41.36 70.14L45.36 74.14C45.99 74.77 46.98 74.83 47.68 74.28L50.66 71.94C51.64 72.47 52.67 72.89 53.74 73.22L54.17 76.98C54.27 77.86 55.02 78.53 55.91 78.53H61.56C62.44 78.53 63.19 77.87 63.3 76.99L63.76 73.23C64.83 72.91 65.86 72.48 66.84 71.95L69.8 74.3C70.5 74.85 71.5 74.8 72.13 74.17L76.13 70.17C76.76 69.54 76.82 68.55 76.27 67.85L73.93 64.87C74.46 63.89 74.88 62.86 75.21 61.79L78.97 61.36C79.85 61.26 80.52 60.51 80.52 59.62V58.53H88.26C89.03 61.4 91.66 63.53 94.77 63.53C98.49 63.53 101.52 60.5 101.52 56.78C101.52 53.06 98.49 50.03 94.77 50.03C91.65 50.03 89.03 52.16 88.26 55.03H80.52V53.97C80.52 53.08 79.86 52.34 78.98 52.23L75.22 51.78C74.9 50.71 74.47 49.68 73.94 48.7L76.29 45.74C76.84 45.04 76.79 44.04 76.16 43.41L75.39 42.64L82.01 36.02C82.34 35.69 82.52 35.25 82.52 34.78V27.53H108V86.03H9.5V27.53H35V34.78C35 35.23 35.18 35.67 35.51 36ZM26 56.76C26 58.55 24.54 60.01 22.75 60.01C20.96 60.01 19.5 58.55 19.5 56.76C19.5 54.97 20.96 53.51 22.75 53.51C24.54 53.51 26 54.97 26 56.76ZM91.5 56.76C91.5 54.97 92.96 53.51 94.75 53.51C96.54 53.51 98 54.97 98 56.76C98 58.55 96.54 60.01 94.75 60.01C92.96 60.01 91.5 58.55 91.5 56.76ZM79 34.04L72.89 40.15L72.14 39.4C71.51 38.77 70.52 38.71 69.82 39.26L66.84 41.6C65.86 41.07 64.83 40.65 63.76 40.32L63.33 36.56C63.23 35.68 62.48 35.01 61.59 35.01H60.5V27.51H79V34.04ZM57 21.51V24.01H38.5V21.51H57ZM69 114.01H48.5V103.51H69V114.01ZM114 97.76C114 99 112.99 100.01 111.75 100.01H5.75C4.51 100.01 3.5 99 3.5 97.76V23.76C3.5 22.52 4.51 21.51 5.75 21.51H35V24.01H7.75C6.78 24.01 6 24.79 6 25.76V87.76C6 88.73 6.78 89.51 7.75 89.51H109.75C110.72 89.51 111.5 88.73 111.5 87.76V25.76C111.5 24.79 110.72 24.01 109.75 24.01H82.5V21.51H111.75C112.99 21.51 114 22.52 114 23.76V97.76Z" fill="#E60000"/>
<path d="M58.75 47.01C53.37 47.01 49 51.38 49 56.76C49 62.14 53.37 66.51 58.75 66.51C64.13 66.51 68.5 62.14 68.5 56.76C68.5 51.39 64.13 47.01 58.75 47.01ZM58.75 63.01C55.3 63.01 52.5 60.21 52.5 56.76C52.5 53.31 55.3 50.51 58.75 50.51C62.2 50.51 65 53.31 65 56.76C65 60.21 62.2 63.01 58.75 63.01Z" fill="black"/>
</svg>
