<svg width="75" height="72" viewBox="0 0 75 72" fill="none" xmlns="http://www.w3.org/2000/svg">
<path d="M71.6729 47.9687H71.1246C70.8374 47.0385 70.4653 46.1404 70.0113 45.2822L70.4026 44.8896C71.0275 44.2684 71.3724 43.4391 71.3737 42.5542C71.3751 41.6673 71.0313 40.8346 70.4057 40.2091L69.6432 39.4471V7.98888C69.6432 3.58371 66.5346 0 62.7134 0H6.92988C3.10862 0 0 3.58371 0 7.98888V49.2672C0 53.6724 3.10862 57.2561 6.92988 57.2561H15.5949C16.4105 57.2561 17.0718 56.5948 17.0718 55.7792C17.0718 54.9636 16.4105 54.3024 15.5949 54.3024H6.92988C4.77467 54.3024 2.95382 51.9965 2.95382 49.2673V22.4731H66.6893V37.3974C66.521 37.3715 66.3505 37.3545 66.177 37.3545C66.1752 37.3545 66.1735 37.3545 66.1719 37.3545C65.287 37.356 64.4576 37.7005 63.8413 38.3201L63.4421 38.7176C62.5659 38.2546 61.6533 37.8781 60.7124 37.5906V37.0646C60.7124 35.2392 59.227 33.7543 57.4012 33.7543H54.7286C52.9051 33.7543 51.4217 35.2392 51.4217 37.0646V37.6266C50.4984 37.9168 49.607 38.2901 48.7549 38.7435L48.3724 38.3621C47.7511 37.7378 46.9216 37.393 46.0367 37.3917C46.0351 37.3917 46.0335 37.3917 46.0317 37.3917C45.1467 37.3917 44.3157 37.7352 43.6914 38.3591L41.8032 40.2464C41.1776 40.8718 40.8338 41.7046 40.8351 42.5914C40.8365 43.4763 41.1812 44.3056 41.8014 44.9219L42.2093 45.331C41.7666 46.176 41.4029 47.0575 41.1216 47.9684H40.5607C38.737 47.9684 37.2536 49.4514 37.2536 51.2745V53.9497C37.2536 54.0687 37.2602 54.1861 37.2725 54.3018H28.6794C27.8638 54.3018 27.2025 54.9631 27.2025 55.7787C27.2025 56.5942 27.8638 57.2555 28.6794 57.2555H40.5605H41.1272C41.4128 58.1751 41.782 59.0636 42.2323 59.9142L41.8332 60.3115C40.5484 61.6032 40.5496 63.7003 41.8363 64.986L43.7255 66.8745C44.3468 67.4989 45.1763 67.8436 46.0612 67.8449H46.066C46.9512 67.8449 47.7822 67.5015 48.4065 66.8775L48.8021 66.4822C49.6603 66.9346 50.5526 67.3042 51.4712 67.5882V68.1598C51.4712 69.9852 52.9546 71.4701 54.7782 71.4701H57.455C59.2784 71.4701 60.7619 69.9852 60.7619 68.1598V67.5917C61.6891 67.3057 62.5851 66.9346 63.4423 66.482L63.8361 66.8744C64.4572 67.4989 65.2865 67.8435 66.1714 67.8449H66.1765C67.0616 67.8449 67.8925 67.5015 68.518 66.8764L70.4022 64.9891C71.0271 64.368 71.372 63.5386 71.3733 62.6538C71.3746 61.7668 71.0309 60.9341 70.4051 60.3086L70.011 59.9146C70.4604 59.0633 70.8294 58.1742 71.1145 57.2556H71.6726C73.4985 57.2556 74.9838 55.7726 74.9838 53.9497V51.2745C74.9841 49.4517 73.4988 47.9687 71.6729 47.9687ZM2.95382 19.5193V7.98888C2.95382 5.25972 4.77467 2.95382 6.92988 2.95382H62.7134C64.8686 2.95382 66.6894 5.25972 66.6894 7.98888V19.5194L2.95382 19.5193ZM72.0303 53.95C72.0303 54.1376 71.8633 54.3021 71.6728 54.3021H69.9839C69.2953 54.3021 68.698 54.7779 68.5443 55.4491C68.2253 56.8412 67.6774 58.1613 66.9157 59.3732C66.5488 59.9568 66.6345 60.7166 67.1222 61.2039L68.3173 62.3982C68.4066 62.4875 68.4198 62.5942 68.4198 62.6498C68.4196 62.7163 68.4023 62.8128 68.3161 62.8983L66.4292 64.7886C66.3397 64.8779 66.2329 64.8914 66.1767 64.8914C66.1765 64.8914 66.1764 64.8914 66.1764 64.8914C66.1093 64.8914 66.0125 64.874 65.926 64.7868L64.7265 63.5924C64.2387 63.1066 63.4803 63.0224 62.8979 63.3885C61.6842 64.152 60.3585 64.7007 58.9574 65.0196C58.2853 65.1728 57.8083 65.7703 57.8083 66.4598V68.1603C57.8083 68.3501 57.6433 68.5167 57.4552 68.5167H54.7785C54.5903 68.5167 54.4253 68.3502 54.4253 68.1603V66.4555C54.4253 65.7654 53.9473 65.1672 53.2742 65.015C51.8909 64.7022 50.5676 64.1543 49.3412 63.3869C49.0995 63.2356 48.828 63.1618 48.5581 63.1618C48.1766 63.1618 47.7984 63.3093 47.5136 63.5943L46.3186 64.7886C46.2292 64.8779 46.1224 64.8914 46.0662 64.8914C46.066 64.8914 46.0659 64.8914 46.0657 64.8914C45.9988 64.8914 45.9018 64.874 45.817 64.7888L43.9247 62.8973C43.7922 62.7649 43.7936 62.5303 43.923 62.4002L45.1223 61.2058C45.6123 60.7178 45.698 59.9554 45.3288 59.3707C44.5659 58.1628 44.0173 56.8435 43.698 55.4496C43.5442 54.7784 42.947 54.3024 42.2582 54.3024H40.5608C40.3694 54.3024 40.2076 54.1412 40.2076 53.9503V51.2751C40.2076 51.0842 40.3694 50.9228 40.5608 50.9228H42.254C42.9433 50.9228 43.5412 50.4458 43.6942 49.7738C44.0094 48.3888 44.551 47.0749 45.3039 45.8685C45.6674 45.286 45.5815 44.5299 45.0966 44.0436L43.8884 42.8319C43.8064 42.7505 43.7891 42.6539 43.789 42.5875C43.789 42.5318 43.8021 42.4252 43.8915 42.336L45.7796 40.4488C45.869 40.3595 45.9758 40.346 46.032 40.346H46.0325C46.0994 40.3461 46.1964 40.3634 46.2829 40.4506L47.4739 41.6368C47.9632 42.1241 48.7243 42.2076 49.3069 41.8379C50.5137 41.0728 51.8354 40.5187 53.2352 40.191C53.903 40.0348 54.3753 39.439 54.3753 38.753V37.065C54.3753 36.8718 54.537 36.7085 54.7284 36.7085H57.4011C57.5948 36.7085 57.7586 36.8718 57.7586 37.065V38.7281C57.7586 39.4201 58.2389 40.0192 58.9145 40.1697C60.3197 40.4826 61.6604 41.0353 62.8992 41.8126C63.4814 42.1775 64.239 42.0932 64.7264 41.6078L65.9306 40.4084C66.0124 40.3262 66.1092 40.3089 66.1761 40.3088H66.1765C66.2328 40.3088 66.3395 40.3223 66.4289 40.4116L68.3171 42.2986C68.4064 42.388 68.4196 42.4946 68.4196 42.5503C68.4195 42.6167 68.4022 42.7133 68.3153 42.7995L67.1201 43.9982C66.6335 44.4864 66.5491 45.2462 66.9169 45.8291C67.6815 47.0412 68.2316 48.3687 68.552 49.7744C68.7052 50.4463 69.3027 50.923 69.9921 50.923H71.6728C71.8632 50.923 72.0303 51.0878 72.0303 51.2752V53.95Z" fill="white"/>
</svg>
